ply
format ascii 1.0
comment PCL generated
element vertex 562
property float x
property float y
property float z
property uchar red
property uchar green
property uchar blue
element camera 1
property float view_px
property float view_py
property float view_pz
property float x_axisx
property float x_axisy
property float x_axisz
property float y_axisx
property float y_axisy
property float y_axisz
property float z_axisx
property float z_axisy
property float z_axisz
property float focal
property float scalex
property float scaley
property float centerx
property float centery
property int viewportx
property int viewporty
property float k1
property float k2
end_header
0 0 0 214 168 112
-0.11092555 0.027641365 0 214 168 112
-0.10512913 0.026666854 0 214 168 112
-0.0951773 0.026765199 0 214 168 112
-0.085273348 0.027751921 0 214 168 112
-0.075228497 0.028303115 0 214 168 112
-0.064981185 0.028413171 0 214 168 112
-0.055937838 0.028780373 0 214 168 112
-0.044955112 0.029501693 0 214 168 112
-0.034800138 0.029501693 0 214 168 112
-0.026045851 0.029501693 0 214 168 112
-0.11122277 0.03226601 0 214 168 112
-0.10499679 0.034970183 0 214 168 112
-0.095025256 0.034973949 0 214 168 112
-0.084908016 0.034973945 0 214 168 112
-0.075139657 0.034973953 0 214 168 112
-0.065022424 0.034973968 0 214 168 112
-0.054906178 0.03497453 0 214 168 112
-0.045108382 0.034948491 0 214 168 112
-0.034990083 0.035029713 0 214 168 112
-0.025737507 0.035024203 0 214 168 112
-0.1037209 0.041362267 0 214 168 112
-0.095027372 0.040617507 0 214 168 112
-0.084914923 0.040670987 0 214 168 112
-0.075188041 0.04099787 0 214 168 112
-0.064970516 0.040617507 0 214 168 112
-0.055007659 0.04063217 0 214 168 112
-0.044651978 0.040892217 0 214 168 112
-0.034477416 0.04137573 0 214 168 112
-0.025444636 0.04298345 0 214 168 112
-0.11093113 0.0077877617 0 214 168 112
-0.10515444 0.0064905272 0 214 168 112
-0.094956622 0.0065768925 0 214 168 112
-0.085296139 0.0071851471 0 214 168 112
-0.077693976 0.0087641357 0 214 168 112
-0.11210023 0.015176556 0 214 168 112
-0.10486335 0.015107939 0 214 168 112
-0.09497574 0.015212193 0 214 168 112
-0.085091002 0.015076128 0 214 168 112
-0.076183952 0.015795259 0 214 168 112
-0.0654618 0.019031368 0 214 168 112
-0.053703781 0.018149817 0 214 168 112
-0.044891234 0.016000194 0 214 168 112
-0.03501121 0.015966488 0 214 168 112
-0.025078278 0.016142365 0 214 168 112
-0.01929386 0.014751038 0 214 168 112
-0.11132982 0.021478303 0 214 168 112
-0.10511208 0.021588659 0 214 168 112
-0.094717517 0.021798927 0 214 168 112
-0.084822625 0.022813009 0 214 168 112
-0.075117096 0.023327623 0 214 168 112
-0.065129839 0.023344006 0 214 168 112
-0.05466859 0.024012888 0 214 168 112
-0.044899493 0.024484307 0 214 168 112
-0.034993768 0.02448432 0 214 168 112
-0.025166072 0.024472503 0 214 168 112
-0.019763116 0.024587512 0 214 168 112
-0.10093005 0.045340255 0 214 168 112
-0.095061235 0.045619342 0 214 168 112
-0.085126437 0.045823548 0 214 168 112
-0.074895464 0.046105795 0 214 168 112
-0.065020084 0.045811269 0 214 168 112
-0.054980285 0.045821033 0 214 168 112
-0.045060206 0.045980565 0 214 168 112
-0.035355393 0.046334602 0 214 168 112
-0.028859148 0.046155136 0 214 168 112
-0.080838487 0.050754435 0 214 168 112
-0.079752825 0.050754435 0 214 168 112
-0.043565143 0.05067759 0 214 168 112
-0.034584317 0.051645011 0 214 168 112
-0.10390767 -0.021213198 0 214 168 112
0.0064622653 -0.024675474 0 214 168 112
0.014897089 -0.02457509 0 214 168 112
0.024999885 -0.02467066 0 214 168 112
0.035047714 -0.02462405 0 214 168 112
0.044999693 -0.024540395 0 214 168 112
0.05479927 -0.024656355 0 214 168 112
0.060383897 -0.020950425 0 214 168 112
-0.10404789 -0.014300428 0 214 168 112
-0.094986238 -0.012638632 0 214 168 112
-0.085705474 -0.012383374 0 214 168 112
-0.079898849 -0.010440009 0 214 168 112
-0.047779202 -0.010651283 0 214 168 112
0.0063266843 -0.015114236 0 214 168 112
0.015069912 -0.015118499 0 214 168 112
0.025086902 -0.015118505 0 214 168 112
0.035103891 -0.015118514 0 214 168 112
0.045120895 -0.015118497 0 214 168 112
0.054667816 -0.015167525 0 214 168 112
0.060560871 -0.017067013 0 214 168 112
-0.11057931 -0.00027363506 0 214 168 112
-0.10508115 -0.004998147 0 214 168 112
-0.095033139 -0.0050433949 0 214 168 112
-0.084716327 -0.0050390051 0 214 168 112
-0.079496324 -0.0033235257 0 214 168 112
-0.051039636 -0.0051777447 0 214 168 112
-0.044771153 -0.0047572465 0 214 168 112
-0.035024177 -0.0047874069 0 214 168 112
-0.024979066 -0.0043217614 0 214 168 112
-0.018475266 -0.0039763418 0 214 168 112
0.0060319626 -0.0059245671 0 214 168 112
0.014940447 -0.0061948244 0 214 168 112
0.025064819 -0.0058023091 0 214 168 112
0.035156555 -0.0058522704 0 214 168 112
0.045053963 -0.0050819488 0 214 168 112
0.054472968 -0.005368901 0 214 168 112
-0.11021482 0.00045534654 0 214 168 112
-0.10501251 0.0015512826 0 214 168 112
-0.094971657 0.0015325824 0 214 168 112
-0.084335998 0.0023490195 0 214 168 112
-0.077187203 0.0048589902 0 214 168 112
-0.052148774 0.0062676487 0 214 168 112
-0.044787865 0.0052835019 0 214 168 112
-0.034936272 0.0053210654 0 214 168 112
-0.025024064 0.0051409849 0 214 168 112
-0.019329187 0.0048649018 0 214 168 112
0.058342598 0.00046835648 0 214 168 112
-0.074766599 0.013051616 0 214 168 112
-0.060127337 0.018463789 0 214 168 112
-0.054341566 0.014032883 0 214 168 112
-0.045286868 0.011122779 0 214 168 112
-0.034765225 0.01102558 0 214 168 112
-0.024549067 0.011306758 0 214 168 112
-0.080742851 0.053147692 0 214 168 112
-0.074595481 0.05236762 0 214 168 112
-0.064740032 0.053130224 0 214 168 112
-0.055000048 0.053384218 0 214 168 112
-0.044941287 0.053943664 0 214 168 112
-0.038125008 0.054255601 0 214 168 112
0.0083736684 -0.042845242 0 214 168 112
0.015495489 -0.044288177 0 214 168 112
0.025063232 -0.044643737 0 214 168 112
0.034812339 -0.044716898 0 214 168 112
0.044777647 -0.044364959 0 214 168 112
0.0542964 -0.042852819 0 214 168 112
0.060528684 -0.04061009 0 214 168 112
-0.10312228 -0.032916583 0 214 168 112
-0.095004842 -0.032475185 0 214 168 112
-0.086500831 -0.032218318 0 214 168 112
-0.017273866 -0.031040911 0 214 168 112
0.007120749 -0.034517843 0 214 168 112
0.015102918 -0.034988973 0 214 168 112
0.02501403 -0.034988973 0 214 168 112
0.034956653 -0.034960296 0 214 168 112
0.044961959 -0.034947637 0 214 168 112
0.054874588 -0.035041168 0 214 168 112
0.060830798 -0.03661222 0 214 168 112
-0.10140572 -0.024878176 0 214 168 112
-0.094751604 -0.024824249 0 214 168 112
-0.085670784 -0.024917843 0 214 168 112
-0.041800626 -0.023700509 0 214 168 112
-0.034854431 -0.024230234 0 214 168 112
-0.024960572 -0.024724085 0 214 168 112
-0.018176472 -0.02424142 0 214 168 112
0.0066516045 -0.029729059 0 214 168 112
0.014956786 -0.029729061 0 214 168 112
0.024772005 -0.029729061 0 214 168 112
0.034964733 -0.029729063 0 214 168 112
0.045157455 -0.029729061 0 214 168 112
0.054595169 -0.029729061 0 214 168 112
-0.10121339 -0.017854067 0 214 168 112
-0.095302053 -0.017528942 0 214 168 112
-0.084399663 -0.016647328 0 214 168 112
-0.078853495 -0.012027502 0 214 168 112
-0.04317547 -0.014149863 0 214 168 112
-0.035004433 -0.014704398 0 214 168 112
-0.025145737 -0.014803328 0 214 168 112
-0.018482452 -0.014103132 0 214 168 112
-0.078297332 -0.0051981802 0 214 168 112
-0.053155672 -0.0024204343 0 214 168 112
-0.046199571 -0.0093436092 0 214 168 112
-0.030344218 -0.0093436092 0 214 168 112
-0.0250591 -0.0093436092 0 214 168 112
-0.019396473 -0.0093436092 0 214 168 112
0.006247527 -0.00062370283 0 214 168 112
0.015320826 -0.00097712548 0 214 168 112
0.024650523 -0.00070350087 0 214 168 112
0.034670707 -0.0006323281 0 214 168 112
-0.075539105 0.0052444292 0 214 168 112
-0.062996916 0.0086157536 0 214 168 112
-0.056233563 0.0049685044 0 214 168 112
0.0060777883 0.003127258 0 214 168 112
0.015031392 0.002861124 0 214 168 112
0.025044627 0.0031339664 0 214 168 112
0.03499319 0.003197503 0 214 168 112
0.045343041 0.0046129166 0 214 168 112
0.053959798 0.0043937559 0 214 168 112
-0.072925039 0.014729419 0 214 168 112
-0.065192886 0.014909473 0 214 168 112
-0.058119539 0.013066172 0 214 168 112
0.049672689 0.010606073 0 214 168 112
-0.10352694 -0.053067829 0 214 168 112
-0.095111422 -0.051757962 0 214 168 112
-0.085070148 -0.051709183 0 214 168 112
-0.078860931 -0.05114473 0 214 168 112
-0.10334625 -0.044008806 0 214 168 112
-0.094930239 -0.045051813 0 214 168 112
-0.084872007 -0.045072857 0 214 168 112
-0.078411683 -0.04460413 0 214 168 112
-0.043421596 -0.043669779 0 214 168 112
-0.035095926 -0.043806434 0 214 168 112
-0.025083384 -0.043695018 0 214 168 112
-0.01830155 -0.043759972 0 214 168 112
-0.10456441 -0.037568349 0 214 168 112
-0.094945692 -0.037539981 0 214 168 112
-0.084032483 -0.03627909 0 214 168 112
-0.077710308 -0.034820758 0 214 168 112
-0.050879817 -0.032319475 0 214 168 112
-0.044565413 -0.034646045 0 214 168 112
-0.034899842 -0.03502325 0 214 168 112
-0.025056567 -0.034952652 0 214 168 112
-0.018892696 -0.035157736 0 214 168 112
-0.080701433 -0.02518972 0 214 168 112
-0.077686578 -0.024953991 0 214 168 112
-0.05056724 -0.027922571 0 214 168 112
-0.0459604 -0.025952773 0 214 168 112
-0.036128946 -0.029374339 0 214 168 112
-0.025142152 -0.029973147 0 214 168 112
-0.018893741 -0.029973147 0 214 168 112
-0.08031071 -0.018464748 0 214 168 112
-0.077475503 -0.015345837 0 214 168 112
-0.050636947 -0.014406078 0 214 168 112
-0.047276497 -0.017116053 0 214 168 112
-0.075008564 -0.004316296 0 214 168 112
-0.064925633 -0.0020651587 0 214 168 112
-0.057524759 -0.0022625034 0 214 168 112
-0.073132135 0.0044378759 0 214 168 112
-0.065619968 0.004427169 0 214 168 112
-0.058399584 0.0018836022 0 214 168 112
0.007385694 0.0078898491 0 214 168 112
0.015056753 0.0076917741 0 214 168 112
0.024837691 0.0078967465 0 214 168 112
0.035047755 0.0079848105 0 214 168 112
0.042756654 0.0090593705 0 214 168 112
0.027172474 0.010146916 0 214 168 112
0.035130259 0.010123438 0 214 168 112
0.045363802 0.011157648 0 214 168 112
0.050202452 0.012090065 0 214 168 112
-0.10203104 -0.080852538 0 214 168 112
-0.095252253 -0.081287265 0 214 168 112
-0.085286044 -0.081287287 0 214 168 112
-0.076980852 -0.081287302 0 214 168 112
-0.10192303 -0.075806104 0 214 168 112
-0.09517926 -0.075004056 0 214 168 112
-0.085237414 -0.075017773 0 214 168 112
-0.076212242 -0.074570887 0 214 168 112
-0.066451862 -0.07108815 0 214 168 112
-0.016103854 -0.070407495 0 214 168 112
-0.10251158 -0.06395267 0 214 168 112
-0.094927043 -0.064999074 0 214 168 112
-0.084948376 -0.064995192 0 214 168 112
-0.074684799 -0.064867109 0 214 168 112
-0.065053679 -0.064986579 0 214 168 112
-0.055205949 -0.064632237 0 214 168 112
-0.045040656 -0.064323075 0 214 168 112
-0.035212036 -0.064154826 0 214 168 112
-0.025086178 -0.063979708 0 214 168 112
-0.018011427 -0.06430155 0 214 168 112
-0.1032381 -0.056497127 0 214 168 112
-0.094922811 -0.056575004 0 214 168 112
-0.084818184 -0.056446929 0 214 168 112
-0.074409939 -0.055109531 0 214 168 112
-0.066270329 -0.057207618 0 214 168 112
-0.053864788 -0.056787491 0 214 168 112
-0.044882894 -0.054997366 0 214 168 112
-0.034951773 -0.054845333 0 214 168 112
-0.025032273 -0.05496648 0 214 168 112
-0.017434442 -0.054825794 0 214 168 112
-0.074568458 -0.045359276 0 214 168 112
-0.051199123 -0.047511272 0 214 168 112
-0.04630544 -0.047708895 0 214 168 112
-0.034858182 -0.049131699 0 214 168 112
-0.024348568 -0.048935238 0 214 168 112
-0.018212222 -0.048936944 0 214 168 112
-0.07419908 -0.034998275 0 214 168 112
-0.05426712 -0.032095734 0 214 168 112
-0.073329687 -0.024575846 0 214 168 112
-0.065251149 -0.022287445 0 214 168 112
-0.055331245 -0.02455499 0 214 168 112
-0.049385745 -0.020480124 0 214 168 112
-0.073031574 -0.01494662 0 214 168 112
-0.064909972 -0.014712699 0 214 168 112
-0.055857256 -0.015256863 0 214 168 112
-0.049385745 -0.019269492 0 214 168 112
-0.07219018 -0.0070510553 0 214 168 112
-0.065170035 -0.0069195055 0 214 168 112
-0.058712739 -0.0074924515 0 214 168 112
0.016287975 0.011190075 0 214 168 112
0.025057051 0.011690556 0 214 168 112
0.03520789 0.012630388 0 214 168 112
0.044032354 0.013365407 0 214 168 112
-0.071806893 -0.081542119 0 214 168 112
-0.065684281 -0.081514597 0 214 168 112
-0.054898903 -0.080961175 0 214 168 112
-0.045730501 -0.080789126 0 214 168 112
-0.036930803 -0.080543339 0 214 168 112
-0.071739338 -0.076779813 0 214 168 112
-0.064576931 -0.075857304 0 214 168 112
-0.054870397 -0.075074233 0 214 168 112
-0.044846904 -0.07507436 0 214 168 112
-0.034823403 -0.075074293 0 214 168 112
-0.024897467 -0.074801795 0 214 168 112
-0.018478056 -0.074238606 0 214 168 112
-0.051811956 -0.069461845 0 214 168 112
-0.044730414 -0.069461837 0 214 168 112
-0.033899829 -0.069184124 0 214 168 112
-0.024735495 -0.069045275 0 214 168 112
-0.018487079 -0.069045283 0 214 168 112
-0.070140637 -0.050300039 0 214 168 112
-0.0644463 -0.053442903 0 214 168 112
-0.05689225 -0.053594764 0 214 168 112
-0.071471862 -0.044676952 0 214 168 112
-0.065350354 -0.045090362 0 214 168 112
-0.056037299 -0.044626437 0 214 168 112
-0.071605146 -0.035108004 0 214 168 112
-0.065198779 -0.035203852 0 214 168 112
-0.057067297 -0.036381662 0 214 168 112
-0.071246482 -0.028051617 0 214 168 112
-0.064994596 -0.027506908 0 214 168 112
-0.059310053 -0.029471993 0 214 168 112
0.18236852 0.046599273 0 142 94 90
0.088460252 0.029851871 0 142 94 90
0.096091382 0.02733748 0 142 94 90
0.10499042 0.02689833 0 142 94 90
0.11499355 0.026944866 0 142 94 90
0.12499398 0.026991006 0 142 94 90
0.13499582 0.026898341 0 142 94 90
0.14499635 0.026944872 0 142 94 90
0.15499416 0.026991004 0 142 94 90
0.16488102 0.026944736 0 142 94 90
0.17499822 0.026944729 0 142 94 90
0.18268657 0.027082227 0 142 94 90
0.087811902 0.034968466 0 142 94 90
0.095075689 0.034815338 0 142 94 90
0.10506646 0.034948066 0 142 94 90
0.11501626 0.034853674 0 142 94 90
0.12498517 0.034924541 0 142 94 90
0.13495283 0.0348767 0 142 94 90
0.14492069 0.035021719 0 142 94 90
0.15491036 0.034839578 0 142 94 90
0.16491187 0.035007119 0 142 94 90
0.17500794 0.034948211 0 142 94 90
0.18223689 0.034496266 0 142 94 90
0.08844392 0.041322276 0 142 94 90
0.095021836 0.042021368 0 142 94 90
0.10519154 0.042365849 0 142 94 90
0.11535357 0.043027081 0 142 94 90
0.12526591 0.044009198 0 142 94 90
0.13501927 0.044561218 0 142 94 90
0.14503177 0.044660248 0 142 94 90
0.15483719 0.044983014 0 142 94 90
0.16493782 0.044898413 0 142 94 90
0.17493322 0.044892177 0 142 94 90
0.18127905 0.042841699 0 142 94 90
0.14868975 0.050161816 0 142 94 90
0.15554708 0.052789025 0 142 94 90
0.16498713 0.051928878 0 142 94 90
0.17332554 0.051684424 0 142 94 90
0.089427114 0.0061545619 0 142 94 90
0.096829571 0.0077697583 0 142 94 90
0.10496839 0.0076943981 0 142 94 90
0.11495702 0.007671685 0 142 94 90
0.12494472 0.0076943948 0 142 94 90
0.13478586 0.0078362981 0 142 94 90
0.14477466 0.0083202077 0 142 94 90
0.15477392 0.0086143576 0 142 94 90
0.16496594 0.0090824952 0 142 94 90
0.17470308 0.0092095239 0 142 94 90
0.18649153 0.0082953041 0 142 94 90
0.19166847 0.009042073 0 142 94 90
0.088541679 0.01788234 0 142 94 90
0.095362082 0.01544897 0 142 94 90
0.10495991 0.015065733 0 142 94 90
0.11498032 0.015078115 0 142 94 90
0.12500037 0.015065741 0 142 94 90
0.13500044 0.015066433 0 142 94 90
0.14508708 0.015187342 0 142 94 90
0.15499206 0.015087136 0 142 94 90
0.16510442 0.015175087 0 142 94 90
0.17487268 0.01522042 0 142 94 90
0.18439391 0.0148912 0 142 94 90
0.19117174 0.010986204 0 142 94 90
0.087184578 0.025491176 0 142 94 90
0.093811564 0.023634257 0 142 94 90
0.10499199 0.021956587 0 142 94 90
0.11498724 0.021956513 0 142 94 90
0.12498233 0.021987405 0 142 94 90
0.134977 0.021956513 0 142 94 90
0.14497419 0.021925531 0 142 94 90
0.15496843 0.021956509 0 142 94 90
0.16511376 0.022017654 0 142 94 90
0.17518218 0.021968946 0 142 94 90
0.18230675 0.021812718 0 142 94 90
0.089517616 0.046543136 0 142 94 90
0.095133424 0.047099877 0 142 94 90
0.10487669 0.047363568 0 142 94 90
0.11450335 0.047893725 0 142 94 90
0.12434319 0.049089659 0 142 94 90
0.13272326 0.049645342 0 142 94 90
0.096658774 0.050982147 0 142 94 90
0.10493539 0.051170677 0 142 94 90
0.11494031 0.051075306 0 142 94 90
0.12542477 0.052120227 0 142 94 90
0.13498197 0.05282414 0 142 94 90
0.14560175 0.053446423 0 142 94 90
0.15123492 0.053627972 0 142 94 90
0.16631983 0.054690674 0 142 94 90
0.17120959 0.055093184 0 142 94 90
0.096888341 -0.010776452 0 142 94 90
0.10501279 -0.011174361 0 142 94 90
0.11496425 -0.011145826 0 142 94 90
0.1249166 -0.011174364 0 142 94 90
0.13487084 -0.011202901 0 142 94 90
0.14500679 -0.011145826 0 142 94 90
0.15490302 -0.011184317 0 142 94 90
0.1645911 -0.011068021 0 142 94 90
0.17508832 -0.01078522 0 142 94 90
0.18430987 -0.010801573 0 142 94 90
0.08720246 -0.0068364302 0 142 94 90
0.096774749 -0.0051688934 0 142 94 90
0.10496033 -0.0046850862 0 142 94 90
0.11495198 -0.0046644504 0 142 94 90
0.12508237 -0.0048002689 0 142 94 90
0.13506129 -0.0046859393 0 142 94 90
0.14498538 -0.0047618174 0 142 94 90
0.15503637 -0.0048144739 0 142 94 90
0.16505222 -0.0046690437 0 142 94 90
0.17498733 -0.0048840125 0 142 94 90
0.18443403 -0.0047125765 0 142 94 90
0.088476025 0.0084416326 0 142 94 90
0.094949163 0.0042824997 0 142 94 90
0.10505302 0.0026492171 0 142 94 90
0.11509712 0.0026337658 0 142 94 90
0.12498207 0.0026645036 0 142 94 90
0.13508192 0.0027742495 0 142 94 90
0.14509417 0.0033114373 0 142 94 90
0.15504237 0.0035692076 0 142 94 90
0.16501753 0.0041028732 0 142 94 90
0.17511617 0.0041878214 0 142 94 90
0.18370114 0.0045886608 0 142 94 90
0.087997884 0.0125535 0 142 94 90
0.091907531 0.012091876 0 142 94 90
0.10597209 -0.031405021 0 142 94 90
0.11506235 -0.031430125 0 142 94 90
0.12518215 -0.031430129 0 142 94 90
0.13530202 -0.031430125 0 142 94 90
0.1450326 -0.031430129 0 142 94 90
0.15476324 -0.031430133 0 142 94 90
0.16488303 -0.031430133 0 142 94 90
0.17500287 -0.031430133 0 142 94 90
0.1851227 -0.031430129 0 142 94 90
0.19085233 -0.031267453 0 142 94 90
0.089557581 -0.022730082 0 142 94 90
0.095699228 -0.023483697 0 142 94 90
0.10493362 -0.024887219 0 142 94 90
0.11487976 -0.024935897 0 142 94 90
0.12497386 -0.02489314 0 142 94 90
0.13506696 -0.024935897 0 142 94 90
0.14504233 -0.024906494 0 142 94 90
0.15501179 -0.024915766 0 142 94 90
0.16506365 -0.024891423 0 142 94 90
0.17507228 -0.024919134 0 142 94 90
0.18457569 -0.02514654 0 142 94 90
0.19096662 -0.029119113 0 142 94 90
0.088876337 -0.01316393 0 142 94 90
0.09479399 -0.015245583 0 142 94 90
0.10490315 -0.016225215 0 142 94 90
0.11502002 -0.01621874 0 142 94 90
0.125137 -0.016225221 0 142 94 90
0.13500112 -0.016225217 0 142 94 90
0.14494926 -0.016205603 0 142 94 90
0.15498213 -0.016179351 0 142 94 90
0.16507606 -0.016112689 0 142 94 90
0.17487721 -0.015843857 0 142 94 90
0.18433186 -0.015924187 0 142 94 90
0.087166496 -0.003173847 0 142 94 90
0.092577182 -0.0035647044 0 142 94 90
0.087645985 0.0010223978 0 142 94 90
0.092105187 0.0017664216 0 142 94 90
0.19238673 -0.050448105 0 142 94 90
0.088810332 -0.040398244 0 142 94 90
0.09521015 -0.04224674 0 142 94 90
0.10527936 -0.044535026 0 142 94 90
0.11494698 -0.045051631 0 142 94 90
0.12492927 -0.045013186 0 142 94 90
0.13494807 -0.045020066 0 142 94 90
0.14500156 -0.045000862 0 142 94 90
0.15505631 -0.045044966 0 142 94 90
0.16519798 -0.044778392 0 142 94 90
0.17497778 -0.044620506 0 142 94 90
0.18495767 -0.04465124 0 142 94 90
0.19188862 -0.043642502 0 142 94 90
0.089365602 -0.033831727 0 142 94 90
0.095457956 -0.035086006 0 142 94 90
0.10440484 -0.03586486 0 142 94 90
0.11503979 -0.036407623 0 142 94 90
0.12503241 -0.036408305 0 142 94 90
0.13503702 -0.036476191 0 142 94 90
0.14494652 -0.036420513 0 142 94 90
0.15497239 -0.036448732 0 142 94 90
0.16493207 -0.036190245 0 142 94 90
0.1749865 -0.036110278 0 142 94 90
0.18501182 -0.036077213 0 142 94 90
0.19169208 -0.036569469 0 142 94 90
0.089075893 -0.029775938 0 142 94 90
0.095264219 -0.028808612 0 142 94 90
0.10060718 -0.029973147 0 142 94 90
0.098260485 -0.071489558 0 142 94 90
0.10494692 -0.07118886 0 142 94 90
0.11510281 -0.071209915 0 142 94 90
0.12484595 -0.071232818 0 142 94 90
0.13321358 -0.070905805 0 142 94 90
0.096977897 -0.06373626 0 142 94 90
0.10474854 -0.065251075 0 142 94 90
0.11507283 -0.065345265 0 142 94 90
0.12515382 -0.065399371 0 142 94 90
0.13490973 -0.065085791 0 142 94 90
0.14499028 -0.064937331 0 142 94 90
0.15479542 -0.064579777 0 142 94 90
0.1648877 -0.064075783 0 142 94 90
0.17491429 -0.063955262 0 142 94 90
0.18492384 -0.063897535 0 142 94 90
0.19267933 -0.063950717 0 142 94 90
0.0963329 -0.05472206 0 142 94 90
0.10478847 -0.05499614 0 142 94 90
0.11491154 -0.055176567 0 142 94 90
0.12493521 -0.055188224 0 142 94 90
0.13502698 -0.055140298 0 142 94 90
0.14488316 -0.055028047 0 142 94 90
0.15497367 -0.054780219 0 142 94 90
0.16506493 -0.054861959 0 142 94 90
0.17499033 -0.054842543 0 142 94 90
0.18495901 -0.054905772 0 142 94 90
0.19248742 -0.05582286 0 142 94 90
0.096053444 -0.047450569 0 142 94 90
0.10169527 -0.048165537 0 142 94 90
0.097760268 -0.081657648 0 142 94 90
0.10508525 -0.082718529 0 142 94 90
0.11475334 -0.083050497 0 142 94 90
0.12459213 -0.082822569 0 142 94 90
0.13458283 -0.082442686 0 142 94 90
0.14460067 -0.082095399 0 142 94 90
0.15486817 -0.081796944 0 142 94 90
0.1641016 -0.081325121 0 142 94 90
0.17450772 -0.080543339 0 142 94 90
0.098049209 -0.076858118 0 142 94 90
0.10483729 -0.076313868 0 142 94 90
0.11485901 -0.076313883 0 142 94 90
0.12488082 -0.076313876 0 142 94 90
0.13517846 -0.075792871 0 142 94 90
0.14490308 -0.075074285 0 142 94 90
0.15492663 -0.07507427 0 142 94 90
0.16493313 -0.075157508 0 142 94 90
0.17492561 -0.075111143 0 142 94 90
0.18485597 -0.074840724 0 142 94 90
0.19370571 -0.073582396 0 142 94 90
0.20062399 -0.071961209 0 142 94 90
0.15813477 -0.069461845 0 142 94 90
0.16575187 -0.069104776 0 142 94 90
0.17521375 -0.069045268 0 142 94 90
0.18521123 -0.069045275 0 142 94 90
0.19354245 -0.069045275 0 142 94 90
0 0 0 1 0 0 0 1 0 0 0 1 0 0 0 0 0 562 1 0 0
